<svg width="388" height="217" viewBox="0 0 388 217" fill="none" xmlns="http://www.w3.org/2000/svg">
<path opacity="0.7" fill-rule="evenodd" clip-rule="evenodd" d="M500.938 -67.2131C503.259 -67.3813 505.6 -67.4901 507.97 -67.4901C562.108 -67.4901 606 -23.7273 606 30.2642C606 84.2557 562.108 128.029 507.97 128.029C491.257 128.029 475.525 123.854 461.758 116.494L500.938 -67.2131ZM456.947 -67.4901H461.758L393.277 254.5C393.236 254.5 392.844 254.5 392.136 254.499C381.738 254.489 303.054 254.407 263 254.5L309.272 30.2741C328.704 -53.918 387.94 -67.4901 456.947 -67.4901Z" fill="white" fill-opacity="0.1"/>
<path opacity="0.5" fill-rule="evenodd" clip-rule="evenodd" d="M184.329 65.7218C186.123 65.5918 187.931 65.5077 189.763 65.5077C231.59 65.5077 265.5 99.3491 265.5 141.1C265.5 182.851 231.59 216.701 189.763 216.701C176.85 216.701 164.696 213.473 154.059 207.781L184.329 65.7218ZM150.342 65.5077H154.059L101.151 314.5C101.119 314.5 100.817 314.5 100.27 314.499C92.2366 314.491 31.4453 314.428 0.5 314.5L36.2499 141.108C51.2624 76.0028 97.0282 65.5077 150.342 65.5077Z" fill="white" fill-opacity="0.1"/>
</svg>
