<svg width="1634" height="290" viewBox="0 0 1634 290" fill="none" xmlns="http://www.w3.org/2000/svg">
<path fill-rule="evenodd" clip-rule="evenodd" d="M1013.28 -82.1249C1016.31 -82.3448 1019.36 -82.4871 1022.46 -82.4871C1093.17 -82.4871 1150.5 -25.2692 1150.5 45.3222C1150.5 115.914 1093.17 173.145 1022.46 173.145C1000.63 173.145 980.084 167.687 962.102 158.064L1013.28 -82.1249ZM955.818 -82.4871H962.102L872.657 338.5C872.604 338.5 872.092 338.5 871.167 338.498C857.587 338.485 754.815 338.379 702.5 338.5L762.938 45.3351C788.317 -64.7422 865.687 -82.4871 955.818 -82.4871Z" fill="white" fill-opacity="0.1"/>
<path opacity="0.7" fill-rule="evenodd" clip-rule="evenodd" d="M596.438 16.7869C598.759 16.6187 601.1 16.5099 603.47 16.5099C657.608 16.5099 701.5 60.2727 701.5 114.264C701.5 168.256 657.608 212.029 603.47 212.029C586.757 212.029 571.025 207.854 557.258 200.494L596.438 16.7869ZM552.447 16.5099H557.258L488.777 338.5C488.736 338.5 488.344 338.5 487.636 338.499C477.238 338.489 398.554 338.407 358.5 338.5L404.772 114.274C424.204 30.082 483.44 16.5099 552.447 16.5099Z" fill="white" fill-opacity="0.1"/>
<path opacity="0.7" fill-rule="evenodd" clip-rule="evenodd" d="M1389.44 16.7869C1391.76 16.6187 1394.1 16.5099 1396.47 16.5099C1450.61 16.5099 1494.5 60.2727 1494.5 114.264C1494.5 168.256 1450.61 212.029 1396.47 212.029C1379.76 212.029 1364.03 207.854 1350.26 200.494L1389.44 16.7869ZM1345.45 16.5099H1350.26L1281.78 338.5C1281.74 338.5 1281.34 338.5 1280.64 338.499C1270.24 338.489 1191.55 338.407 1151.5 338.5L1197.77 114.274C1217.2 30.082 1276.44 16.5099 1345.45 16.5099Z" fill="white" fill-opacity="0.1"/>
<path opacity="0.5" fill-rule="evenodd" clip-rule="evenodd" d="M1679.33 89.7218C1681.12 89.5918 1682.93 89.5077 1684.76 89.5077C1726.59 89.5077 1760.5 123.349 1760.5 165.1C1760.5 206.851 1726.59 240.701 1684.76 240.701C1671.85 240.701 1659.7 237.473 1649.06 231.781L1679.33 89.7218ZM1645.34 89.5077H1649.06L1596.15 338.5C1596.12 338.5 1595.82 338.5 1595.27 338.499C1587.24 338.491 1526.45 338.428 1495.5 338.5L1531.25 165.108C1546.26 100.003 1592.03 89.5077 1645.34 89.5077Z" fill="white" fill-opacity="0.1"/>
<path opacity="0.5" fill-rule="evenodd" clip-rule="evenodd" d="M276.329 89.7218C278.123 89.5918 279.931 89.5077 281.763 89.5077C323.59 89.5077 357.5 123.349 357.5 165.1C357.5 206.851 323.59 240.701 281.763 240.701C268.85 240.701 256.696 237.473 246.059 231.781L276.329 89.7218ZM242.342 89.5077H246.059L193.151 338.5C193.119 338.5 192.817 338.5 192.27 338.499C184.237 338.491 123.445 338.428 92.5 338.5L128.25 165.108C143.262 100.003 189.028 89.5077 242.342 89.5077Z" fill="white" fill-opacity="0.1"/>
<path d="M33.6155 90L58.8462 69.5L33.6155 49V90Z" fill="white" fill-opacity="0.1"/>
<path d="M40.7115 28.5C18.5389 28.5 0.5 46.8926 0.5 69.5C0.5 92.1074 18.5389 110.5 40.7115 110.5C62.8842 110.5 80.9231 92.1074 80.9231 69.5C80.9231 46.8926 62.8842 28.5 40.7115 28.5ZM40.7115 102.3C22.9742 102.3 8.54231 87.5851 8.54231 69.5C8.54231 51.4149 22.9742 36.7 40.7115 36.7C58.4488 36.7 72.8808 51.4149 72.8808 69.5C72.8808 87.5851 58.4488 102.3 40.7115 102.3Z" fill="white" fill-opacity="0.1"/>
<path d="M1571.41 84.4118L1593.06 66.8236L1571.41 49.2354V84.4118Z" fill="white" fill-opacity="0.1"/>
<path d="M1582.5 31.6471C1563.48 31.6471 1548 47.4273 1548 66.8236C1548 86.2199 1563.48 102 1582.5 102C1601.52 102 1617 86.2199 1617 66.8236C1617 47.4273 1601.52 31.6471 1582.5 31.6471ZM1582.5 94.9647C1567.28 94.9647 1554.9 82.3399 1554.9 66.8236C1554.9 51.3072 1567.28 38.6824 1582.5 38.6824C1597.72 38.6824 1610.1 51.3072 1610.1 66.8236C1610.1 82.3399 1597.72 94.9647 1582.5 94.9647Z" fill="white" fill-opacity="0.1"/>
<path d="M1325.82 229.824L1337.12 220.647L1325.82 211.471V229.824Z" fill="white" fill-opacity="0.1"/>
<path d="M1330 202.294C1320.07 202.294 1312 210.527 1312 220.647C1312 230.767 1320.07 239 1330 239C1339.93 239 1348 230.767 1348 220.647C1348 210.527 1339.93 202.294 1330 202.294ZM1330 235.329C1322.06 235.329 1315.6 228.742 1315.6 220.647C1315.6 212.552 1322.06 205.965 1330 205.965C1337.94 205.965 1344.4 212.552 1344.4 220.647C1344.4 228.742 1337.94 235.329 1330 235.329Z" fill="white" fill-opacity="0.1"/>
</svg>
